<svg viewBox="0 0 139 139" xml:space="preserve" xmlns="http://www.w3.org/2000/svg"><path d="M69.896 6.767v-.02c-.134 0-.265.008-.396.008s-.262-.008-.396-.008v.02c-26.777.426-48.356 22.249-48.356 49.128 0 36.221 42.526 70.601 48.752 75.486 6.227-4.884 48.752-39.266 48.752-75.486 0-26.879-21.578-48.702-48.356-49.128zm0 70.269c-14.011 0-25.367-11.354-25.367-25.363 0-14.013 11.356-25.369 25.367-25.369S95.264 37.66 95.264 51.673c0 14.009-11.357 25.363-25.368 25.363z" fill="#ba9f5a" class="fill-000000"></path></svg>